<?xml version="1.0" encoding="utf-8"?>
<!-- Generator: Adobe Illustrator 12.0.0, SVG Export Plug-In . SVG Version: 6.00 Build 51448)  -->
<!DOCTYPE svg PUBLIC "-//W3C//DTD SVG 1.1//EN" "http://www.w3.org/Graphics/SVG/1.1/DTD/svg11.dtd" [
	<!ENTITY ns_svg "http://www.w3.org/2000/svg">
	<!ENTITY ns_xlink "http://www.w3.org/1999/xlink">
]>
<svg  version="1.1" id="レイヤー_1" xmlns="&ns_svg;" xmlns:xlink="&ns_xlink;" width="24.25" height="30"
	 viewBox="0 0 24.25 30" overflow="visible" enable-background="new 0 0 24.25 30" xml:space="preserve">
<g>
	<path fill="#FFFFFF" d="M24.25,2c0-1.1-0.9-2-2-2H2C0.9,0,0,0.9,0,2v26c0,1.1,0.9,2,2,2h20.25c1.1,0,2-0.675,2-1.5s0-2.4,0-3.5V2z
		 M3,5c0-1.1,0.9-2,2-2h14.25c1.1,0,2,0.9,2,2v20c0,1.1-0.9,2-2,2H5c-1.1,0-2-0.9-2-2V5z"/>
</g>
<g>
	<path fill="#FFFFFF" d="M6.862,9.538c0-1.119,0.916-2.034,2.034-2.034h6.456c1.118,0,2.034,0.915,2.034,2.034v10.924
		c0,1.118-0.916,2.034-2.034,2.034H8.896c-1.119,0-2.034-0.916-2.034-2.034V9.538z"/>
</g>
</svg>
