<?xml version="1.0" encoding="utf-8"?>
<!-- Generator: Adobe Illustrator 12.0.0, SVG Export Plug-In . SVG Version: 6.00 Build 51448)  -->
<!DOCTYPE svg PUBLIC "-//W3C//DTD SVG 1.1//EN" "http://www.w3.org/Graphics/SVG/1.1/DTD/svg11.dtd" [
	<!ENTITY ns_svg "http://www.w3.org/2000/svg">
	<!ENTITY ns_xlink "http://www.w3.org/1999/xlink">
]>
<svg  version="1.1" id="レイヤー_1" xmlns="&ns_svg;" xmlns:xlink="&ns_xlink;" width="30.005" height="30.005"
	 viewBox="0 0 30.005 30.005" overflow="visible" enable-background="new 0 0 30.005 30.005" xml:space="preserve">
<g>
	<path fill="#FFFFFF" d="M15.002,0C6.716,0,0,6.717,0,15.003s6.716,15.002,15.002,15.002s15.003-6.716,15.003-15.002
		S23.288,0,15.002,0L15.002,0z M15.002,27.005c-3.206,0-6.22-1.248-8.487-3.515C4.248,21.223,3,18.209,3,15.003
		s1.248-6.221,3.515-8.488S11.796,3,15.002,3c6.618,0,12.003,5.385,12.003,12.003c0,3.206-1.248,6.22-3.515,8.487
		C21.223,25.757,18.208,27.005,15.002,27.005L15.002,27.005z"/>
</g>
<line fill="none" stroke="#FFFFFF" stroke-width="3.5" x1="24.253" y1="5.752" x2="5.753" y2="24.253"/>
<line fill="none" stroke="#FFFFFF" stroke-width="3.5" x1="18" y1="2.096" x2="2.096" y2="17.999"/>
<line fill="none" stroke="#FFFFFF" stroke-width="3.5" x1="27.903" y1="12" x2="12" y2="27.903"/>
</svg>
