<?xml version="1.0" encoding="utf-8"?>
<!-- Generator: Adobe Illustrator 12.0.0, SVG Export Plug-In . SVG Version: 6.00 Build 51448)  -->
<!DOCTYPE svg PUBLIC "-//W3C//DTD SVG 1.1//EN" "http://www.w3.org/Graphics/SVG/1.1/DTD/svg11.dtd" [
	<!ENTITY ns_svg "http://www.w3.org/2000/svg">
	<!ENTITY ns_xlink "http://www.w3.org/1999/xlink">
]>
<svg  version="1.1" id="レイヤー_1" xmlns="&ns_svg;" xmlns:xlink="&ns_xlink;" width="30.006" height="30.006"
	 viewBox="0 0 30.006 30.006" overflow="visible" enable-background="new 0 0 30.006 30.006" xml:space="preserve">
<g>
	<path fill="#FFFFFF" d="M15.002,0C6.716,0,0,6.717,0,15.003s6.716,15.002,15.002,15.002s15.003-6.716,15.003-15.002
		S23.288,0,15.002,0L15.002,0z M15.002,27.005c-3.206,0-6.22-1.248-8.487-3.515C4.248,21.223,3,18.209,3,15.003
		s1.248-6.221,3.515-8.488S11.796,3,15.002,3c6.618,0,12.003,5.385,12.003,12.003c0,3.206-1.248,6.22-3.515,8.487
		C21.223,25.757,18.208,27.005,15.002,27.005L15.002,27.005z"/>
</g>
<g>
	<circle fill="#FFFFFF" cx="15.003" cy="15.003" r="5.003"/>
</g>
<g>
	<g>
		<path fill="#FFFFFF" d="M23.003,18C20.239,18,18,20.24,18,23.003c0,2.604,1.998,4.72,4.542,4.956
			c2.241-1.308,4.109-3.176,5.417-5.417C27.723,19.999,25.607,18,23.003,18z M23.003,11.006c2.329,0,4.271-1.6,4.827-3.756
			c-1.562-2.578-3.87-4.646-6.635-5.901C19.328,2.075,18,3.879,18,6.003C18,8.766,20.239,11.006,23.003,11.006z M6.997,18
			c-2.603,0-4.716,1.994-4.956,4.534c1.308,2.246,3.177,4.116,5.421,5.426C10.004,27.721,12,25.607,12,23.003
			C12,20.24,9.76,18,6.997,18z M8.808,1.35C6.042,2.607,3.733,4.677,2.172,7.257c0.559,2.152,2.497,3.75,4.825,3.75
			C9.76,11.006,12,8.766,12,6.003C12,3.88,10.673,2.077,8.808,1.35z"/>
	</g>
</g>
</svg>
