<?xml version="1.0" encoding="utf-8"?>
<!-- Generator: Adobe Illustrator 12.0.0, SVG Export Plug-In . SVG Version: 6.00 Build 51448)  -->
<!DOCTYPE svg PUBLIC "-//W3C//DTD SVG 1.1//EN" "http://www.w3.org/Graphics/SVG/1.1/DTD/svg11.dtd" [
	<!ENTITY ns_svg "http://www.w3.org/2000/svg">
	<!ENTITY ns_xlink "http://www.w3.org/1999/xlink">
]>
<svg  version="1.1" id="レイヤー_1" xmlns="&ns_svg;" xmlns:xlink="&ns_xlink;" width="30" height="30" viewBox="0 0 30 30"
	 overflow="visible" enable-background="new 0 0 30 30" xml:space="preserve">
<circle fill="#FFFFFF" cx="14.97" cy="11.219" r="5.782"/>
<g>
	<path fill="#FFFFFF" d="M22.852,24.658c-0.996-3.893-3.771-6.682-7.854-6.682c-4.08,0-6.936,2.789-7.967,6.682
		c-0.277,1.047-0.313,1.563-0.354,2.193C6.635,27.482,7.304,28,8.163,28h13.542c0.857,0,1.527-0.518,1.488-1.146
		C23.15,26.223,23.117,25.705,22.852,24.658z"/>
</g>
<g>
	<g>
		<g>
			<path fill="#FFFFFF" d="M30,2c0-1.1-0.9-2-2-2H2C0.9,0,0,0.9,0,2v26c0,1.1,0.9,2,2,2h26c1.1,0,2-0.675,2-1.5s0-2.4,0-3.5V2z M3,5
				c0-1.1,0.9-2,2-2h20c1.1,0,2,0.9,2,2v20c0,1.1-0.9,2-2,2H5c-1.1,0-2-0.9-2-2V5z"/>
		</g>
	</g>
</g>
</svg>
