<?xml version="1.0" encoding="utf-8"?>
<!-- Generator: Adobe Illustrator 12.0.0, SVG Export Plug-In . SVG Version: 6.00 Build 51448)  -->
<!DOCTYPE svg PUBLIC "-//W3C//DTD SVG 1.1//EN" "http://www.w3.org/Graphics/SVG/1.1/DTD/svg11.dtd" [
	<!ENTITY ns_svg "http://www.w3.org/2000/svg">
	<!ENTITY ns_xlink "http://www.w3.org/1999/xlink">
]>
<svg  version="1.1" id="レイヤー_1" xmlns="&ns_svg;" xmlns:xlink="&ns_xlink;" width="23" height="22" viewBox="0 0 23 22"
	 overflow="visible" enable-background="new 0 0 23 22" xml:space="preserve">
<path fill="#FFFFFF" d="M20,8.39c0,0.55-0.45,1-1,1H8c-0.55,0-1-0.45-1-1v-1c0-0.55,0.45-1,1-1h11c0.55,0,1,0.45,1,1V8.39z"/>
<path fill="#FFFFFF" d="M20,13.39c0,0.55-0.45,1-1,1H8c-0.55,0-1-0.45-1-1v-1c0-0.55,0.45-1,1-1h11c0.55,0,1,0.45,1,1V13.39z"/>
<path fill="#FFFFFF" d="M20,18.39c0,0.55-0.45,1-1,1H8c-0.55,0-1-0.45-1-1v-1c0-0.55,0.45-1,1-1h11c0.55,0,1,0.45,1,1V18.39z"/>
<path fill="#FFFFFF" d="M9,3.39c0,0.55-0.45,1-1,1H0c-0.55,0-1-0.45-1-1v-1c0-0.55,0.45-1,1-1h8c0.55,0,1,0.45,1,1V3.39z"/>
<path fill="#FFFFFF" d="M4,20.39c-0.55,0-1-0.45-1-1v-12c0-0.55,0.45-1,1-1l0,0c0.55,0,1,0.45,1,1v12C5,19.939,4.55,20.39,4,20.39
	L4,20.39z"/>
</svg>
