<?xml version="1.0" encoding="utf-8"?>
<!-- Generator: Adobe Illustrator 12.0.0, SVG Export Plug-In . SVG Version: 6.00 Build 51448)  -->
<!DOCTYPE svg PUBLIC "-//W3C//DTD SVG 1.1//EN" "http://www.w3.org/Graphics/SVG/1.1/DTD/svg11.dtd" [
	<!ENTITY ns_svg "http://www.w3.org/2000/svg">
	<!ENTITY ns_xlink "http://www.w3.org/1999/xlink">
]>
<svg  version="1.1" id="レイヤー_1" xmlns="&ns_svg;" xmlns:xlink="&ns_xlink;" width="12.917" height="26.688"
	 viewBox="0 0 12.917 26.688" overflow="visible" enable-background="new 0 0 12.917 26.688" xml:space="preserve">
<g>
	<g>
		<g>
			<path fill="#FFFFFF" d="M3.99,19.01c-0.541,0-1.17,0.319-1.459,0.756l-2.335,3.542C0.062,23.509,0,23.755,0,24.001
				c0.003,0.338,0.129,0.677,0.366,0.907l1.556,1.526c0.172,0.168,0.37,0.253,0.562,0.253c0.262,0,0.509-0.154,0.662-0.45
				l3.079-5.98c0.072-0.14,0.104-0.276,0.104-0.403c-0.002-0.336-0.248-0.6-0.663-0.649l-1.522-0.186
				C4.093,19.014,4.042,19.01,3.99,19.01L3.99,19.01z M3.688,20.541c0.054-0.062,0.223-0.139,0.303-0.139
				c-0.01-0.001-0.018-0.005-0.028-0.005c0.005,0,0.009,0,0.013,0.004l0.574,0.067L2.294,24.85l-0.88-0.862L3.688,20.541
				L3.688,20.541z"/>
		</g>
		<g>
			<path fill="#FFFFFF" d="M11.051,12.446c0.088-0.169,0.072-0.439-0.036-0.598l-0.499-0.735c-0.108-0.16-0.266-0.149-0.354,0.021
				l-3.506,6.803c-0.087,0.172-0.02,0.383,0.15,0.472l0.618,0.316c0.172,0.089,0.382,0.02,0.471-0.148L11.051,12.446z"/>
		</g>
	</g>
	<g>
		<g>
			<path fill="#FFFFFF" d="M8.928,19.01c-0.052,0-0.103,0.004-0.152,0.009l-1.523,0.186c-0.415,0.05-0.661,0.313-0.664,0.649
				c-0.002,0.127,0.032,0.264,0.105,0.403l3.08,5.98c0.151,0.296,0.398,0.45,0.66,0.45c0.19,0,0.389-0.085,0.563-0.253l1.555-1.526
				c0.237-0.23,0.362-0.569,0.365-0.907c0.002-0.246-0.062-0.492-0.194-0.693l-2.338-3.542C10.096,19.329,9.468,19.01,8.928,19.01
				L8.928,19.01z M8.368,20.469l0.561-0.066H8.927c0.079,0,0.243,0.077,0.302,0.138l2.274,3.447l-0.879,0.862L8.368,20.469
				L8.368,20.469z M9.233,20.543C9.233,20.543,9.233,20.543,9.233,20.543S9.233,20.543,9.233,20.543L9.233,20.543z"/>
		</g>
		<g>
			<path fill="#FFFFFF" d="M1.786,12.446c-0.087-0.169-0.071-0.439,0.037-0.598l0.499-0.735c0.107-0.16,0.267-0.149,0.354,0.021
				l3.505,6.803c0.087,0.172,0.02,0.383-0.15,0.472l-0.619,0.316c-0.169,0.089-0.38,0.02-0.468-0.148L1.786,12.446z"/>
		</g>
	</g>
</g>
<line fill="none" stroke="#FFFFFF" stroke-dasharray="2 1" x1="6.458" y1="14" x2="6.458" y2="0"/>
</svg>
