<?xml version="1.0" encoding="utf-8"?>
<!-- Generator: Adobe Illustrator 12.0.0, SVG Export Plug-In . SVG Version: 6.00 Build 51448)  -->
<!DOCTYPE svg PUBLIC "-//W3C//DTD SVG 1.1//EN" "http://www.w3.org/Graphics/SVG/1.1/DTD/svg11.dtd" [
	<!ENTITY ns_svg "http://www.w3.org/2000/svg">
	<!ENTITY ns_xlink "http://www.w3.org/1999/xlink">
]>
<svg  version="1.1" id="レイヤー_1" xmlns="&ns_svg;" xmlns:xlink="&ns_xlink;" width="41.792" height="37.592"
	 viewBox="0 0 41.792 37.592" overflow="visible" enable-background="new 0 0 41.792 37.592" xml:space="preserve">
<g>
	<defs>
		<filter id="Adobe_OpacityMaskFilter" filterUnits="userSpaceOnUse" x="6.835" y="5.695" width="28.979" height="31.896">
			
				<feColorMatrix  type="matrix" values="-1 0 0 0 1  0 -1 0 0 1  0 0 -1 0 1  0 0 0 1 0" color-interpolation-filters="sRGB" result="source"/>
			<feFlood  style="flood-color:white;flood-opacity:1" result="back"/>
			<feBlend  in="source" in2="back" mode="normal"/>
		</filter>
	</defs>
	<mask maskUnits="userSpaceOnUse" x="6.835" y="5.695" width="28.979" height="31.896" id="XMLID_1_">
		<g filter="url(#Adobe_OpacityMaskFilter)">
			<g>
				<rect x="25.186" y="27.126" fill="#FFFFFF" width="1.869" height="12.922"/>
				<rect x="25.186" y="27.126" fill="#FFFFFF" width="13.051" height="1.867"/>
			</g>
		</g>
	</mask>
	<path mask="url(#XMLID_1_)" fill="#2C4762" d="M7.835,37.592c-0.55,0-1-0.45-1-1V5.695h28.979v23.353l-8.703,8.544H7.835z"/>
	<defs>
		<filter id="Adobe_OpacityMaskFilter_1_" filterUnits="userSpaceOnUse" x="0" y="0" width="41.792" height="10.538">
			
				<feColorMatrix  type="matrix" values="-1 0 0 0 1  0 -1 0 0 1  0 0 -1 0 1  0 0 0 1 0" color-interpolation-filters="sRGB" result="source"/>
			<feFlood  style="flood-color:white;flood-opacity:1" result="back"/>
			<feBlend  in="source" in2="back" mode="normal"/>
		</filter>
	</defs>
	<mask maskUnits="userSpaceOnUse" x="0" y="0" width="41.792" height="10.538" id="XMLID_2_">
		<g filter="url(#Adobe_OpacityMaskFilter_1_)">
			<g>
				<path fill="#FFFFFF" d="M37.378,37.274c0,0.55-0.285,1.348-0.635,1.773l-8.344,10.164c-0.35,0.426-1.085,0.773-1.635,0.773
					H6.055c-0.55,0-1-0.45-1-1V5.218c0-0.55,0.45-1,1-1h30.323c0.55,0,1,0.45,1,1V37.274z"/>
			</g>
		</g>
	</mask>
	<g mask="url(#XMLID_2_)">
		<path fill="#2C4762" d="M0,1c0-0.55,0.45-1,1-1h39.792c0.55,0,1,0.45,1,1v8.538c0,0.55-0.45,1-1,1H1c-0.55,0-1-0.45-1-1V1z"/>
	</g>
</g>
</svg>
